# xmcd
#
# Track frame offsets: 
#        150
#        22015
#        42285
#        60590
#        80306
#        100806
#        119640
#        142706
#        159246
#        180502
#        198776
#        220676
#        234887
#        250402
#
# Disc length: 3607 seconds
#
# Revision: 0
# Processed by: cddbd v1.5.2PL0 Copyright (c) Steve Scherf et al.
# Submitted via: ExactAudioCopy v1.3
#
DISCID=ac0e150e
DTITLE=Crazy Hambones - Hole In The Roll
DYEAR=2010
DGENRE=Blues
TTITLE0=Got A Hole In The Roll
TTITLE1=Pony Blues
TTITLE2=Going To The River
TTITLE3=Good Liquor
TTITLE4=South In My Soul
TTITLE5=Treat My Disposition
TTITLE6=Like Mike
TTITLE7=Now Is The Time, Everybody Ought To Treat A Stranger Right
TTITLE8=Meet Me In The Alley
TTITLE9=Back Door Man
TTITLE10=How Sweet It Is (To Be Loved By You)
TTITLE11=Honky Tonk
TTITLE12=Back Of My Car
TTITLE13=Tijuana Jail
EXTD=
EXTT0=
EXTT1=
EXTT2=
EXTT3=
EXTT4=
EXTT5=
EXTT6=
EXTT7=
EXTT8=
EXTT9=
EXTT10=
EXTT11=
EXTT12=
EXTT13=
PLAYORDER=
